<svg width="594" height="559" xmlns="http://www.w3.org/2000/svg" xmlns:xlink="http://www.w3.org/1999/xlink" overflow="hidden"><defs><clipPath id="clip0"><rect x="301" y="89" width="594" height="559"/></clipPath></defs><g clip-path="url(#clip0)" transform="translate(-301 -89)"><path d="M302 182.002C302 130.638 343.638 89 395.002 89L800.998 89C852.362 89 894 130.638 894 182.002L894 553.998C894 605.362 852.362 647 800.998 647L395.002 647C343.638 647 302 605.362 302 553.998Z" fill="#ED7D31" fill-rule="evenodd"/><rect x="431" y="219" width="334" height="322" fill="#FFF2CC"/><path d="M32.0007 0 355.999 0C373.673-6.17471e-15 388 14.3272 388 32.0007L388 192 0 192 0 32.0007C-1.23494e-14 14.3272 14.3272 0 32.0007 0Z" fill="#00B0F0" fill-rule="evenodd" transform="matrix(1 0 0 -1 404 552)"/></g></svg>