<?xml version="1.0" encoding="UTF-8" standalone="no"?>
<svg
   width="596"
   height="560"
   overflow="hidden"
   version="1.1"
   id="svg1080"
   xmlns="http://www.w3.org/2000/svg"
   xmlns:svg="http://www.w3.org/2000/svg">
  <defs
     id="defs1070">
    <clipPath
       id="clip0">
      <rect
         x="300"
         y="88"
         width="596"
         height="560"
         id="rect1067" />
    </clipPath>
  </defs>
  <g
     clip-path="url(#clip0)"
     transform="translate(-300 -88)"
     id="g1078">
    <path
       d="M302.5 182.502C302.5 131.138 344.138 89.5001 395.502 89.5001L801.498 89.5001C852.862 89.5001 894.5 131.138 894.5 182.502L894.5 554.498C894.5 605.862 852.862 647.5 801.498 647.5L395.502 647.5C344.138 647.5 302.5 605.862 302.5 554.498Z"
       stroke="#AE5A21"
       stroke-width="1.33333"
       stroke-miterlimit="8"
       fill="#ED7D31"
       fill-rule="evenodd"
       id="path1072" />
    <rect
       x="431.5"
       y="195.5"
       width="334"
       height="346"
       stroke="#2F528F"
       stroke-width="1.33333"
       stroke-miterlimit="8"
       fill="#FFFFFF"
       id="rect1074" />
    <path
       d="M38.6676 0 445.332 0C466.688-7.70246e-15 484 17.3121 484 38.6676L484 232 0 232 0 38.6676C-7.70246e-15 17.3121 17.3121-7.70246e-15 38.6676 0Z"
       stroke="#41719C"
       stroke-width="1.33333"
       stroke-miterlimit="8"
       fill="#5B9BD5"
       fill-rule="evenodd"
       transform="matrix(1 0 0 -1 356.5 592.5)"
       id="path1076" />
  </g>
</svg>
