<svg width="400" height="400" viewBox="1208 364 400 400" shape-rendering="geometricPrecision" xmlns="http://www.w3.org/2000/svg" xmlns:xlink="http://www.w3.org/1999/xlink"><title>画板-文件图标</title><g transform="translate(1208 364)  rotate(0 200 200) scale(1, 1)" opacity="1"><g><g transform="translate(74.4999771118164 27.00000762939453)  rotate(0 125.50000594916946 173.00001544100508) scale(1, 1)" opacity="1"><g transform="translate(0.000003360450136824511 -3.6443202588998247e-7)  rotate(0 125.50000761610727 173.00001525878906) scale(1, 1)" opacity="1"><path d="M4.72986e-16 32C4.72986e-16 14.3269 14.3269 1.24371e-23 32 1.24371e-23L219 1.24371e-23C236.673 1.24371e-23 251 14.3269 251 32L251 314C251 331.673 236.673 346 219 346L32 346C14.3269 346 4.72986e-16 331.673 4.72986e-16 314L4.72986e-16 32Z" shape-rendering="geometricPrecision" fill="#D5AD10" fill-opacity="1" style="mix-blend-mode:normal;fill-rule:evenodd"></path></g><g transform="translate(23.500022888183594 34.49999237060547)  rotate(0 102 138.5) scale(1, 1)" filter="url(#filter-7q2-1ap)" opacity="1"><g transform="translate(0 0)  rotate(0 102 138.5) scale(1, 1)" opacity="1"><g filter="url(#filter-7q2-ut)" transform="translate(0 0)  rotate(0 102 138.5) scale(1, 1)" opacity="1"><defs><filter id="filter-7q2-ut" filterUnits="userSpaceOnUse" x="-4" y="-2" width="212" height="285" color-interpolation-filters="sRGB"><feFlood flood-opacity="0" result="BackgroundImageFix"></feFlood><feColorMatrix in="SourceAlpha" type="matrix" values="0 0 0 0 0 0 0 0 0 0 0 0 0 0 0 0 0 0 127 0" result="hardAlpha"></feColorMatrix>0<feOffset dx="0" dy="2"></feOffset><feGaussianBlur stdDeviation="2"></feGaussianBlur><feComposite in2="hardAlpha" operator="out"></feComposite><feColorMatrix type="matrix" values="0 0 0 0 0 0 0 0 0 0 0 0 0 0 0 0 0 0 0.5 0"></feColorMatrix><feBlend mode="normal" in2="BackgroundImageFix" result="effect0_dropShadow"></feBlend><feBlend mode="normal" in="SourceGraphic" in2="effect0_dropShadow" result="shape"></feBlend></filter></defs><path d="M0 0L204 0L204 277L0 277L0 0Z" shape-rendering="geometricPrecision" fill="#D8D8D8" fill-opacity="1" style="mix-blend-mode:normal;fill-rule:evenodd"></path></g><g filter="url(#filter-7q2-zm)" transform="translate(8 8.5)  rotate(0 8 8) scale(1, 1)" opacity="1"><defs><filter id="filter-7q2-zm" filterUnits="userSpaceOnUse" x="-3.999999523162842" y="-1.9999995231628418" width="23.999999523162842" height="23.999999523162842" color-interpolation-filters="sRGB"><feFlood flood-opacity="0" result="BackgroundImageFix"></feFlood><feColorMatrix in="SourceAlpha" type="matrix" values="0 0 0 0 0 0 0 0 0 0 0 0 0 0 0 0 0 0 127 0" result="hardAlpha"></feColorMatrix>0<feOffset dx="0" dy="2"></feOffset><feGaussianBlur stdDeviation="2"></feGaussianBlur><feComposite in2="hardAlpha" operator="out"></feComposite><feColorMatrix type="matrix" values="0 0 0 0 0 0 0 0 0 0 0 0 0 0 0 0 0 0 0.5 0"></feColorMatrix><feBlend mode="normal" in2="BackgroundImageFix" result="effect0_dropShadow"></feBlend><feBlend mode="normal" in="SourceGraphic" in2="effect0_dropShadow" result="shape"></feBlend></filter></defs><path d="M8 16C12.4183 16 16 12.4183 16 8C16 3.58172 12.4183 0 8 0C3.58172 0 0 3.58172 0 8C0 12.4183 3.58172 16 8 16Z" shape-rendering="geometricPrecision" fill="#0886B3" fill-opacity="1" style="mix-blend-mode:normal;fill-rule:evenodd"></path></g></g><g transform="translate(30.99995088007563 161.5)  rotate(0 70.99996185302825 39.50001525878906) scale(1, 1)" opacity="1"><g transform="translate(-1.8189894035458565e-12 64.00002990965822)  rotate(0 58.999977111816705 7.5) scale(1, 1)" opacity="1"><path d="M7.60712e-22 7.5C7.60712e-22 3.35786 3.35786 0 7.5 0L110.5 0C114.642 0 118 3.35786 118 7.5L118 7.5C118 11.6421 114.642 15 110.5 15L7.5 15C3.35786 15 7.60712e-22 11.6421 7.60712e-22 7.5L7.60712e-22 7.5Z" shape-rendering="geometricPrecision" fill="#7A7A7A" fill-opacity="1" style="mix-blend-mode:normal;fill-rule:evenodd"></path></g><g transform="translate(0.00009143114857579349 32.000004133855214)  rotate(0 70.99991638182564 7.5) scale(1, 1)" opacity="1"><path d="M-5.33489e-13 7.5C-5.33489e-13 3.35786 3.35786 0 7.5 0L134.5 0C138.642 0 142 3.35786 142 7.5L142 7.5C142 11.6421 138.642 15 134.5 15L7.5 15C3.35786 15 -5.33489e-13 11.6421 -5.33489e-13 7.5L-5.33489e-13 7.5Z" shape-rendering="geometricPrecision" fill="#7A7A7A" fill-opacity="1" style="mix-blend-mode:normal;fill-rule:evenodd"></path></g><g transform="translate(38.0000739443621 0)  rotate(0 51.99990677833557 7.5) scale(1, 1)" opacity="1"><path d="M-1.80946e-07 7.5C-1.80946e-07 3.35786 3.35786 0 7.5 0L96.4998 0C100.642 0 104 3.35786 104 7.5L104 7.5C104 11.6421 100.642 15 96.4998 15L7.5 15C3.35786 15 -1.80946e-07 11.6421 -1.80946e-07 7.5L-1.80946e-07 7.5Z" shape-rendering="geometricPrecision" fill="#7A7A7A" fill-opacity="1" style="mix-blend-mode:normal;fill-rule:evenodd"></path></g></g><defs><filter id="filter-7q2-1ap" filterUnits="userSpaceOnUse" x="-4" y="-2" width="212" height="285" color-interpolation-filters="sRGB"><feFlood flood-opacity="0" result="BackgroundImageFix"></feFlood><feColorMatrix in="SourceAlpha" type="matrix" values="0 0 0 0 0 0 0 0 0 0 0 0 0 0 0 0 0 0 127 0" result="hardAlpha"></feColorMatrix>0<feOffset dx="0" dy="2"></feOffset><feGaussianBlur stdDeviation="2"></feGaussianBlur><feComposite in2="hardAlpha" operator="out"></feComposite><feColorMatrix type="matrix" values="0 0 0 0 0 0 0 0 0 0 0 0 0 0 0 0 0 0 0.5 0"></feColorMatrix><feBlend mode="normal" in2="BackgroundImageFix" result="effect0_dropShadow"></feBlend><feBlend mode="normal" in="SourceGraphic" in2="effect0_dropShadow" result="shape"></feBlend></filter></defs></g></g></g></g></svg>