<svg width="400" height="400" viewBox="1208 364 400 400" shape-rendering="geometricPrecision" xmlns="http://www.w3.org/2000/svg" xmlns:xlink="http://www.w3.org/1999/xlink"><title>画板-文件图标</title><g transform="translate(1208 364)  rotate(0 200 200) scale(1, 1)" opacity="1"><g><g transform="translate(74.5 27)  rotate(0 125.5 173) scale(1, 1)" opacity="1"><g transform="translate(0 0)  rotate(0 125.5 173) scale(1, 1)" opacity="1"><g transform="translate(0 0)  rotate(0 125.5 173) scale(1, 1)" opacity="1"><path d="M0 0L251 0L251 346L0 346L0 0Z" shape-rendering="geometricPrecision" fill="#D8D8D8" fill-opacity="1" style="mix-blend-mode:normal;fill-rule:evenodd"></path> <defs><mask id="stroke-mask-7q2-ut-7q3-82" x="-100" y="-100" height="546" width="451" maskContentUnits="userSpaceOnUse" maskUnits="objectBoundingBox"><rect width="251" height="346" fill="black"></rect><path fill="white" d="M0 0L251 0L251 346L0 346L0 0Z"></path></mask></defs><path d="M0 0L251 0L251 346L0 346L0 0Z" fill-opacity="0" fill="none" stroke-dasharray="" stroke-linecap="butt" stroke-linejoin="miter" stroke="#9A9A9A" stroke-opacity="1" stroke-width="2" mask="url(#stroke-mask-7q2-ut-7q3-82)" style="mix-blend-mode:normal"></path> </g><g filter="url(#filter-7q2-zm)" transform="translate(9.843137483970793 10.617328628736285)  rotate(0 9.84313702583313 9.992779674512814) scale(1, 1)" opacity="1"><defs><filter id="filter-7q2-zm" filterUnits="userSpaceOnUse" x="-4" y="-2" width="27.686275482177734" height="27.985559463500977" color-interpolation-filters="sRGB"><feFlood flood-opacity="0" result="BackgroundImageFix"></feFlood><feColorMatrix in="SourceAlpha" type="matrix" values="0 0 0 0 0 0 0 0 0 0 0 0 0 0 0 0 0 0 127 0" result="hardAlpha"></feColorMatrix>0<feOffset dx="0" dy="2"></feOffset><feGaussianBlur stdDeviation="2"></feGaussianBlur><feComposite in2="hardAlpha" operator="out"></feComposite><feColorMatrix type="matrix" values="0 0 0 0 0 0 0 0 0 0 0 0 0 0 0 0 0 0 0.5 0"></feColorMatrix><feBlend mode="normal" in2="BackgroundImageFix" result="effect0_dropShadow"></feBlend><feBlend mode="normal" in="SourceGraphic" in2="effect0_dropShadow" result="shape"></feBlend></filter></defs><path d="M9.84314 19.9856C15.2794 19.9856 19.6863 15.5116 19.6863 9.99278C19.6863 4.47392 15.2794 -1.7879e-15 9.84314 -1.7879e-15C4.40692 -1.7879e-15 -9.34975e-09 4.47392 -9.34975e-09 9.99278C-9.34975e-09 15.5116 4.40692 19.9856 9.84314 19.9856Z" shape-rendering="geometricPrecision" fill="#0886B3" fill-opacity="1" style="mix-blend-mode:normal;fill-rule:evenodd"></path></g></g><g transform="translate(38.14222453987509 225.99999002945552)  rotate(0 87.35779620152006 40.00001377147027) scale(1, 1)" opacity="1"><g transform="translate(-0.000003375260305915617 64.81015315262543)  rotate(0 72.5931167602539 7.5949366837739944) scale(1, 1)" opacity="1"><path d="M1.76228e-29 7.59494C1.76228e-29 3.40037 3.40037 -4.92779e-09 7.59494 -4.92779e-09L137.591 -4.92779e-09C141.786 -4.92779e-09 145.186 3.40037 145.186 7.59494L145.186 7.59494C145.186 11.7895 141.786 15.1899 137.591 15.1899L7.59494 15.1899C3.40037 15.1899 1.76228e-29 11.7895 1.76228e-29 7.59494L1.76228e-29 7.59494Z" shape-rendering="geometricPrecision" fill="#7A7A7A" fill-opacity="1" style="mix-blend-mode:normal;fill-rule:evenodd"></path></g><g transform="translate(0.00008879804109085399 32.40506605122262)  rotate(0 87.35774993896484 7.594936698675156) scale(1, 1)" opacity="1"><path d="M4.01812e-31 7.59494C4.01812e-31 3.40037 3.40037 -5.16354e-10 7.59494 -5.16354e-10L167.121 -5.16354e-10C171.315 -5.16354e-10 174.715 3.40037 174.715 7.59494L174.715 7.59494C174.715 11.7895 171.315 15.1899 167.121 15.1899L7.59494 15.1899C3.40037 15.1899 4.01812e-31 11.7895 4.01812e-31 7.59494L4.01812e-31 7.59494Z" shape-rendering="geometricPrecision" fill="#7A7A7A" fill-opacity="1" style="mix-blend-mode:normal;fill-rule:evenodd"></path></g><g transform="translate(46.7549699924196 0)  rotate(0 63.980281829833984 7.594936370849609) scale(1, 1)" opacity="1"><path d="M-4.79914e-23 7.59494C-4.79914e-23 3.40037 3.40037 0 7.59494 0L120.366 0C124.56 0 127.961 3.40037 127.961 7.59494L127.961 7.59494C127.961 11.7895 124.56 15.1899 120.366 15.1899L7.59494 15.1899C3.40037 15.1899 -4.79914e-23 11.7895 -4.79914e-23 7.59494L-4.79914e-23 7.59494Z" shape-rendering="geometricPrecision" fill="#7A7A7A" fill-opacity="1" style="mix-blend-mode:normal;fill-rule:evenodd"></path></g></g></g></g></g></svg>