<svg width="400" height="400" viewBox="771 345 400 400" shape-rendering="geometricPrecision" xmlns="http://www.w3.org/2000/svg" xmlns:xlink="http://www.w3.org/1999/xlink"><title>画板</title><g transform="translate(771 345)  rotate(0 200 200) scale(1, 1)" opacity="1"><g><g transform="translate(87.12495445223976 52.24998474121094)  rotate(0 112.87503814697251 147.75001525878906) scale(1, 1)" opacity="1"><g transform="translate(18.34491436071049 0)  rotate(0 94.53011958216159 109.58579335793358) scale(1, 1)" opacity="1"><g transform="translate(46.617596516168234 8.16429675865038e-7)  rotate(0 71.22132062911987 109.5857925415039) scale(1, 1)" opacity="1"><path d="M2.91302e-07 0L142.443 0L142.443 219.172L2.91302e-07 219.172L2.91302e-07 0Z" shape-rendering="geometricPrecision" fill="#7A7A7A" fill-opacity="1" style="mix-blend-mode:normal;fill-rule:evenodd"></path></g><g transform="translate(23.30880451706699 8.16429675865038e-7)  rotate(0 71.22132086753845 109.5857925415039) scale(1, 1)" opacity="1"><path d="M2.35794e-07 0L142.443 0L142.443 219.172L2.35794e-07 219.172L2.35794e-07 0Z" shape-rendering="geometricPrecision" fill="#9A9A9A" fill-opacity="1" style="mix-blend-mode:normal;fill-rule:evenodd"></path></g><g transform="translate(0 0)  rotate(0 71.22132873535156 109.5857925415039) scale(1, 1)" opacity="1"><g transform="translate(0 0)  rotate(0 71.22132873535156 109.5857925415039) scale(1, 1)" opacity="1"><path d="M0 0L142.443 0L142.443 219.172L0 219.172L0 0Z" shape-rendering="geometricPrecision" fill="#C7C7C7" fill-opacity="1" style="mix-blend-mode:normal;fill-rule:evenodd"></path></g><g transform="translate(25.035386644513068 15.265682193186008)  rotate(0 46.185948610305786 13.084871312349046) scale(1, 1)" opacity="1"><path d="M1.17108e-07 1.77531e-15L92.3719 1.77531e-15L92.3719 26.1697L1.17108e-07 26.1697L1.17108e-07 1.77531e-15Z" shape-rendering="geometricPrecision" fill="#0886B3" fill-opacity="1" style="mix-blend-mode:normal;fill-rule:evenodd"></path></g></g></g><g transform="translate(2.8421709430404007e-13 28.350548471823743)  rotate(0 112.87503814697266 133.57473754882812) scale(1, 1)" opacity="1"><g transform="translate(0 0)  rotate(0 112.87501525878906 74.1476058959961) scale(1, 1)" opacity="1"><path d="M8 0C3.58172 0 0 3.58172 0 8L0 140.295C0 144.713 3.58172 148.295 8 148.295L217.75 148.295C222.168 148.295 225.75 144.713 225.75 140.295L225.75 8C225.75 3.58172 222.168 0 217.75 0L8 0ZM63.8132 18.5369C52.2379 18.5369 42.8542 27.9205 42.8542 39.4958C42.8542 51.0711 52.2379 60.4547 63.8132 60.4547L162.83 60.4547C174.405 60.4547 183.789 51.0711 183.789 39.4958C183.789 27.9205 174.405 18.5369 162.83 18.5369L63.8132 18.5369Z" shape-rendering="geometricPrecision" fill="#E0BB0C" fill-opacity="1" style="mix-blend-mode:normal;fill-rule:evenodd"></path></g><g transform="translate(0.00005606076759079315 42.48010160980026)  rotate(0 112.87500762939453 112.33468788862228) scale(1, 1)" opacity="1"><path d="M0 64.8899L0 192.669C0 210.342 14.3269 224.669 32 224.669L193.75 224.669C211.423 224.669 225.75 210.342 225.75 192.669L225.75 0.0631752C225.75 0.0421116 225.75 0.0210528 225.75 -1.31857e-06L225.75 64.8286C225.75 82.5017 211.423 96.8286 193.75 96.8286L31.9999 96.8286C14.3473 96.8286 0.0331225 82.5348 0 64.8899Z" shape-rendering="geometricPrecision" fill="#E0BB0C" fill-opacity="1" style="mix-blend-mode:normal;fill-rule:evenodd"></path></g></g></g></g></g></svg>