<svg width="400" height="400" viewBox="785 364 400 400" shape-rendering="geometricPrecision" xmlns="http://www.w3.org/2000/svg" xmlns:xlink="http://www.w3.org/1999/xlink"><title>画板</title><g transform="translate(785 364)  rotate(0 200 200) scale(1, 1)" opacity="1"><g><g transform="translate(74.49998496981789 26.999984741210938)  rotate(0 125.50003814697251 173) scale(1, 1)" opacity="1"><g transform="translate(25.448448827802736 0)  rotate(0 100.0516357421875 128.31365966796875) scale(1, 1)" opacity="1"><g transform="translate(28.139524405418868 7.466670552958021e-7)  rotate(0 85.9818708896637 128.31365966796875) scale(1, 1)" opacity="1"><path d="M2.12361e-09 -8.20112e-39L171.964 -8.20112e-39L171.964 256.627L2.12361e-09 256.627L2.12361e-09 -8.20112e-39Z" shape-rendering="geometricPrecision" fill="#9A9A9A" fill-opacity="1" style="mix-blend-mode:normal;fill-rule:evenodd"></path></g><g transform="translate(0 0)  rotate(0 89.52581429476454 128.31365966796875) scale(1, 1)" opacity="1"><g transform="translate(0 0)  rotate(0 89.52581787109375 128.31365966796875) scale(1, 1)" opacity="1"><path d="M0 0L179.052 0L179.052 256.627L0 256.627L0 0Z" shape-rendering="geometricPrecision" fill="#C7C7C7" fill-opacity="1" style="mix-blend-mode:normal;fill-rule:evenodd"></path> <defs><mask id="stroke-mask-7pt-179-7pt-1cm" x="-100" y="-100" height="456.6273193359375" width="379.0516357421875" maskContentUnits="userSpaceOnUse" maskUnits="objectBoundingBox"><rect width="179.0516357421875" height="256.6273193359375" fill="black"></rect><path fill="white" d="M0 0L179.052 0L179.052 256.627L0 256.627L0 0Z"></path></mask></defs><path d="M0 0L179.052 0L179.052 256.627L0 256.627L0 0Z" fill-opacity="0" fill="none" stroke-dasharray="" stroke-linecap="butt" stroke-linejoin="miter" stroke="#9A9A9A" stroke-opacity="1" stroke-width="2" mask="url(#stroke-mask-7pt-179-7pt-1cm)" style="mix-blend-mode:normal"></path> </g></g></g><g transform="translate(2.8421709430404007e-13 33.19556203381481)  rotate(0 125.50003814697266 156.4022216796875) scale(1, 1)" opacity="1"><g transform="translate(0 0)  rotate(0 125.5000139565887 86.81919336722386) scale(1, 1)" opacity="1"><path d="M8 0C3.58172 0 0 3.58172 0 8L0 165.638C0 170.057 3.58172 173.638 8 173.638L243 173.638C247.418 173.638 251 170.057 251 165.638L251 8C251 3.58172 247.418 0 243 0L8 0ZM72.1882 21.7048C58.6347 21.7048 47.6475 32.6921 47.6475 46.2455C47.6475 59.799 58.6347 70.7863 72.1882 70.7863L179.804 70.7863C193.358 70.7863 204.345 59.799 204.345 46.2455C204.345 32.6921 193.358 21.7048 179.804 21.7048L72.1882 21.7048Z" shape-rendering="geometricPrecision" fill="#E0BB0C" fill-opacity="1" style="mix-blend-mode:normal;fill-rule:evenodd"></path></g><g transform="translate(0.00005606076759079315 44.28190422895737)  rotate(0 125.50000547385123 134.26127314567566) scale(1, 1)" opacity="1"><path d="M0 86.8998L0 236.523C0 254.196 14.3269 268.523 32 268.523L219 268.523C236.673 268.523 251 254.196 251 236.523L251 0.0631752C251 0.0421116 251 0.0210528 251 -1.31857e-06L251 86.8342C251 104.507 236.673 118.834 219 118.834L31.9999 118.834C14.3487 118.834 0.0354096 104.543 0 86.8998Z" shape-rendering="geometricPrecision" fill="#E0BB0C" fill-opacity="1" style="mix-blend-mode:normal;fill-rule:evenodd"></path></g></g></g></g></g></svg>