<svg width="258" height="258" xmlns="http://www.w3.org/2000/svg" xmlns:xlink="http://www.w3.org/1999/xlink" overflow="hidden"><defs><clipPath id="clip0"><rect x="496" y="231" width="258" height="258"/></clipPath></defs><g clip-path="url(#clip0)" transform="translate(-496 -231)"><rect x="498.5" y="232.5" width="255" height="255" stroke="#2F528F" stroke-width="1.33333" stroke-miterlimit="8" fill="none"/><rect x="523.5" y="258.5" width="204" height="203" stroke="#2F528F" stroke-width="1.33333" stroke-linecap="square" stroke-miterlimit="8" fill="none"/><rect x="508.5" y="274.5" width="235" height="172" stroke="#2F528F" stroke-width="1.33333" stroke-miterlimit="8" fill="none"/><rect x="540.5" y="242.5" width="170" height="235" stroke="#2F528F" stroke-width="1.33333" stroke-miterlimit="8" fill="none"/><path d="M508.5 360C508.5 295.107 561.107 242.5 626 242.5 690.894 242.5 743.5 295.107 743.5 360 743.5 424.893 690.894 477.5 626 477.5 561.107 477.5 508.5 424.893 508.5 360Z" stroke="#2F528F" stroke-width="1.33333" stroke-miterlimit="8" fill="none" fill-rule="evenodd"/><path d="M573.5 360.5C573.5 331.781 596.781 308.5 625.5 308.5 654.219 308.5 677.5 331.781 677.5 360.5 677.5 389.219 654.219 412.5 625.5 412.5 596.781 412.5 573.5 389.219 573.5 360.5Z" stroke="#2F528F" stroke-width="1.33333" stroke-miterlimit="8" fill="none" fill-rule="evenodd"/><path d="M498.5 232.5 753.618 487.618" stroke="#4472C4" stroke-width="0.666667" stroke-miterlimit="8" fill="none" fill-rule="evenodd"/><path d="M0 0 255 255.118" stroke="#4472C4" stroke-width="0.666667" stroke-miterlimit="8" fill="none" fill-rule="evenodd" transform="matrix(1 0 0 -1 498.5 487.618)"/><rect x="498.5" y="322.5" width="255" height="75" stroke="#2F528F" stroke-width="1.33333" stroke-miterlimit="8" fill="none"/><rect x="588.5" y="232.5" width="74" height="255" stroke="#2F528F" stroke-width="1.33333" stroke-miterlimit="8" fill="none"/><path d="M498.5 360.5 753.5 360.5" stroke="#4472C4" stroke-width="0.666667" stroke-miterlimit="8" fill="none" fill-rule="evenodd"/><path d="M625.5 232.5 625.5 487.167" stroke="#4472C4" stroke-width="0.666667" stroke-miterlimit="8" fill="none" fill-rule="evenodd"/></g></svg>